<?xml version="1.0" encoding="utf-8"?>
<!-- Generator: Adobe Illustrator 23.0.1, SVG Export Plug-In . SVG Version: 6.00 Build 0)  -->
<svg version="1.1" id="Layer_1" xmlns="http://www.w3.org/2000/svg" xmlns:xlink="http://www.w3.org/1999/xlink" x="0px" y="0px"
	 viewBox="0 0 248.4 60.2" style="enable-background:new 0 0 248.4 60.2;" xml:space="preserve">
<style type="text/css">
	.st0{fill:url(#SVGID_1_);}
	.st1{fill:none;stroke:url(#SVGID_2_);stroke-width:2;stroke-miterlimit:10;}
	.st2{fill:#F1F1F2;}
</style>
<linearGradient id="SVGID_1_" gradientUnits="userSpaceOnUse" x1="123.8865" y1="4.7825" x2="123.8865" y2="55.2062">
	<stop  offset="0" style="stop-color:#3433ED"/>
	<stop  offset="0.3996" style="stop-color:#2827B7;stop-opacity:0.9201"/>
	<stop  offset="1" style="stop-color:#171669;stop-opacity:0.8"/>
</linearGradient>
<path class="st0" d="M233.2,56.1H14.6C8.7,56.1,4,51.3,4,45.5V16.2C4,10.4,8.7,5.6,14.6,5.6h218.7c5.8,0,10.6,4.7,10.6,10.6v29.3
	C243.8,51.3,239.1,56.1,233.2,56.1z"/>
<linearGradient id="SVGID_2_" gradientUnits="userSpaceOnUse" x1="124.291" y1="4.63" x2="124.291" y2="57.0537">
	<stop  offset="0" style="stop-color:#00ADEE"/>
	<stop  offset="1" style="stop-color:#414FA1"/>
</linearGradient>
<path class="st1" d="M233.6,56.1H15c-5.8,0-10.6-4.7-10.6-10.6V16.2C4.4,10.4,9.1,5.6,15,5.6h218.7c5.8,0,10.6,4.7,10.6,10.6v29.3
	C244.2,51.3,239.5,56.1,233.6,56.1z"/>
<g>
	<path class="st2" d="M85.7,35.4l1-1.3c0.9,1,2.3,1.9,4.2,1.9c2.4,0,3.2-1.3,3.2-2.3c0-3.5-7.9-1.5-7.9-6.3c0-2.2,2-3.7,4.6-3.7
		c2.1,0,3.6,0.7,4.8,1.9l-1,1.2c-1-1.1-2.4-1.6-3.9-1.6c-1.6,0-2.8,0.9-2.8,2.1c0,3,7.9,1.3,7.9,6.3c0,2-1.3,3.9-4.9,3.9
		C88.5,37.5,86.8,36.6,85.7,35.4z"/>
	<path class="st2" d="M105.5,37.3V25.3h-4.2v-1.5h10.2v1.5h-4.3v11.9H105.5z"/>
	<path class="st2" d="M125.9,37.3l-1.2-3H118l-1.2,3h-1.9l5.4-13.4h2.1l5.4,13.4H125.9z M121.4,25.6l-2.9,7.2h5.7L121.4,25.6z"/>
	<path class="st2" d="M141.3,37.3l-3.4-5.3h-2.7v5.3h-1.7V23.8h5.4c2.5,0,4.2,1.6,4.2,4c0,2.4-1.6,3.7-3.5,3.9l3.6,5.5H141.3z
		 M141.4,27.9c0-1.5-1.1-2.6-2.7-2.6h-3.5v5.1h3.5C140.3,30.5,141.4,29.4,141.4,27.9z"/>
	<path class="st2" d="M152.9,37.3V25.3h-4.2v-1.5h10.2v1.5h-4.3v11.9H152.9z"/>
</g>
</svg>
