<?xml version="1.0" encoding="utf-8"?>
<!-- Generator: Adobe Illustrator 23.0.1, SVG Export Plug-In . SVG Version: 6.00 Build 0)  -->
<svg version="1.1" id="Layer_1" xmlns="http://www.w3.org/2000/svg" xmlns:xlink="http://www.w3.org/1999/xlink" x="0px" y="0px"
	 viewBox="0 0 400 400" style="enable-background:new 0 0 400 400;" xml:space="preserve">
<style type="text/css">
	.st0{opacity:0.78;fill:#161124;}
	.st1{opacity:0.5;fill:#F15F2A;}
	.st2{fill:#F15F2A;}
	.st3{fill:#161124;stroke:#F15F2A;stroke-width:0.7126;stroke-miterlimit:10;}
	.st4{fill:#161124;stroke:#E43625;stroke-width:2.8502;stroke-miterlimit:10;}
	.st5{fill:#353068;}
	.st6{fill:none;stroke:#7D7B7B;stroke-width:0.3429;stroke-miterlimit:10;}
	.st7{opacity:0.3;fill:#353068;}
	.st8{fill:none;stroke:#7D7B7B;stroke-width:0.5449;stroke-miterlimit:10;}
</style>
<g>
	<path class="st0" d="M71.1,0v235.2l129.7,129.7l127.4-127.4V0C328.2,0,69.9,1.2,71.1,0z"/>
	
		<rect x="128.4" y="161.9" transform="matrix(0.7071 -0.7071 0.7071 0.7071 -106.5415 209.8164)" class="st1" width="143.2" height="143.2"/>
	
		<rect x="141.7" y="175.2" transform="matrix(0.7071 -0.7071 0.7071 0.7071 -106.5415 209.8164)" class="st2" width="116.5" height="116.5"/>
	
		<rect x="141.7" y="175.2" transform="matrix(0.7071 -0.7071 0.7071 0.7071 -106.5415 209.8164)" class="st2" width="116.5" height="116.5"/>
	<polygon class="st3" points="310.5,199.6 301.3,199.6 233.9,199.6 233.9,132.2 233.9,123 206.1,95.2 193.9,95.2 166.1,123 
		166.1,132.2 166.1,199.6 98.7,199.6 89.5,199.6 61.7,227.4 61.7,239.6 89.5,267.5 98.7,267.5 166.1,267.5 166.1,334.8 166.1,344 
		193.9,371.9 206.1,371.9 233.9,344 233.9,334.8 233.9,267.5 301.3,267.5 310.5,267.5 338.3,239.6 338.3,227.4 	"/>
	<polygon class="st4" points="309.1,204.4 301.2,204.4 229.1,204.4 229.1,132.3 229.1,124.4 205.2,100.5 194.8,100.5 170.9,124.4 
		170.9,132.3 170.9,204.4 98.8,204.4 90.9,204.4 67,228.3 67,238.7 90.9,262.7 98.8,262.7 170.9,262.7 170.9,334.7 170.9,342.6 
		194.8,366.5 205.2,366.5 229.1,342.6 229.1,334.7 229.1,262.7 301.2,262.7 309.1,262.7 333,238.7 333,228.3 	"/>
	
		<rect x="76.4" y="228.3" transform="matrix(0.7071 -0.7071 0.7071 0.7071 -141.1041 125.7578)" class="st5" width="9.8" height="9.8"/>
	
		<rect x="314.4" y="228.3" transform="matrix(0.7071 -0.7071 0.7071 0.7071 -71.3737 294.1018)" class="st5" width="9.8" height="9.8"/>
	
		<rect x="195.4" y="347.4" transform="matrix(-0.7071 -0.7071 0.7071 -0.7071 92.8393 742.9431)" class="st5" width="9.8" height="9.8"/>
	
		<rect x="195.4" y="109.3" transform="matrix(-0.7071 -0.7071 0.7071 -0.7071 261.1834 336.5245)" class="st5" width="9.8" height="9.8"/>
	
		<rect x="163.3" y="196.8" transform="matrix(0.7071 -0.7071 0.7071 0.7071 -106.5415 209.8164)" class="st6" width="73.3" height="73.3"/>
	
		<rect x="166.6" y="200.1" transform="matrix(0.7071 -0.7071 0.7071 0.7071 -106.5415 209.8164)" class="st7" width="66.8" height="66.8"/>
	
		<rect x="141.7" y="175.2" transform="matrix(0.7071 -0.7071 0.7071 0.7071 -106.5415 209.8164)" class="st8" width="116.5" height="116.5"/>
</g>
</svg>
