<?xml version="1.0" encoding="utf-8"?>
<!-- Generator: Adobe Illustrator 23.0.1, SVG Export Plug-In . SVG Version: 6.00 Build 0)  -->
<svg version="1.1" id="Layer_1" xmlns="http://www.w3.org/2000/svg" xmlns:xlink="http://www.w3.org/1999/xlink" x="0px" y="0px"
	 viewBox="0 0 248.4 60.2" style="enable-background:new 0 0 248.4 60.2;" xml:space="preserve">
<style type="text/css">
	.st0{fill:url(#SVGID_1_);}
	.st1{fill:none;stroke:url(#SVGID_2_);stroke-width:2;stroke-miterlimit:10;}
	.st2{fill:#F1F2F2;}
</style>
<linearGradient id="SVGID_1_" gradientUnits="userSpaceOnUse" x1="123.8865" y1="4.7825" x2="123.8865" y2="55.2062">
	<stop  offset="0" style="stop-color:#3433ED"/>
	<stop  offset="0.3996" style="stop-color:#2827B7;stop-opacity:0.9201"/>
	<stop  offset="1" style="stop-color:#171669;stop-opacity:0.8"/>
</linearGradient>
<path class="st0" d="M233.2,56.1H14.6C8.7,56.1,4,51.3,4,45.5V16.2C4,10.4,8.7,5.6,14.6,5.6h218.7c5.8,0,10.6,4.7,10.6,10.6v29.3
	C243.8,51.3,239.1,56.1,233.2,56.1z"/>
<linearGradient id="SVGID_2_" gradientUnits="userSpaceOnUse" x1="124.291" y1="4.63" x2="124.291" y2="57.0537">
	<stop  offset="0" style="stop-color:#00ADEE"/>
	<stop  offset="1" style="stop-color:#414FA1"/>
</linearGradient>
<path class="st1" d="M233.6,56.1H15c-5.8,0-10.6-4.7-10.6-10.6V16.2C4.4,10.4,9.1,5.6,15,5.6h218.7c5.8,0,10.6,4.7,10.6,10.6v29.3
	C244.2,51.3,239.5,56.1,233.6,56.1z"/>
<g>
	<path class="st2" d="M46.3,37.7V23.6H52c2.8,0,4.4,1.9,4.4,4.3s-1.6,4.3-4.4,4.3h-3.9v5.6H46.3z M54.6,27.9c0-1.6-1.1-2.7-2.8-2.7
		h-3.7v5.4h3.7C53.5,30.6,54.6,29.5,54.6,27.9z"/>
	<path class="st2" d="M63,37.7V23.6h1.8v12.6h6.6v1.6H63z"/>
	<path class="st2" d="M88.1,37.7l-1.2-3.1h-7l-1.2,3.1h-2l5.7-14.1h2.2l5.7,14.1H88.1z M83.3,25.4l-3,7.6h6L83.3,25.4z"/>
	<path class="st2" d="M99,37.7v-6l-5.6-8.2h2.1l4.4,6.6l4.4-6.6h2.1l-5.5,8.2v6H99z"/>
	<path class="st2" d="M132.1,37.7l-1.2-3.1h-7l-1.2,3.1h-2l5.7-14.1h2.2l5.7,14.1H132.1z M127.4,25.4l-3,7.6h6L127.4,25.4z"/>
	<path class="st2" d="M138.9,30.7c0-4.4,3.2-7.3,7.3-7.3c2.5,0,4.2,1.1,5.5,2.6l-1.4,0.9c-0.9-1.1-2.4-1.9-4.1-1.9
		c-3.1,0-5.4,2.4-5.4,5.7c0,3.3,2.4,5.8,5.4,5.8c1.7,0,3.1-0.8,3.8-1.5V32h-4.9v-1.6h6.6v5.1c-1.3,1.5-3.2,2.4-5.5,2.4
		C142.1,38,138.9,35.1,138.9,30.7z"/>
	<path class="st2" d="M168.8,37.7l-1.2-3.1h-7l-1.2,3.1h-2l5.7-14.1h2.2l5.7,14.1H168.8z M164,25.4l-3,7.6h6L164,25.4z"/>
	<path class="st2" d="M176.9,37.7V23.6h1.8v14.1H176.9z"/>
	<path class="st2" d="M196.2,37.7L188,26.5v11.3h-1.8V23.6h1.8l8.1,11v-11h1.8v14.1H196.2z"/>
</g>
</svg>
